<?xml version="1.0" encoding="UTF-8" standalone="no"?>
<!-- Created with Inkscape (http://www.inkscape.org/) -->

<svg
   width="150mm"
   height="50mm"
   viewBox="0 0 150 50"
   version="1.1"
   id="svg1"
   inkscape:version="1.3 (0e150ed6c4, 2023-07-21)"
   sodipodi:docname="abandono.svg"
   xmlns:inkscape="http://www.inkscape.org/namespaces/inkscape"
   xmlns:sodipodi="http://sodipodi.sourceforge.net/DTD/sodipodi-0.dtd"
   xmlns="http://www.w3.org/2000/svg"
   xmlns:svg="http://www.w3.org/2000/svg">
  <sodipodi:namedview
     id="namedview1"
     pagecolor="#ffffff"
     bordercolor="#000000"
     borderopacity="0.25"
     inkscape:showpageshadow="2"
     inkscape:pageopacity="0.0"
     inkscape:pagecheckerboard="0"
     inkscape:deskcolor="#d1d1d1"
     inkscape:document-units="mm"
     inkscape:zoom="1.1296016"
     inkscape:cx="396.6"
     inkscape:cy="456.79822"
     inkscape:window-width="2560"
     inkscape:window-height="1560"
     inkscape:window-x="0"
     inkscape:window-y="0"
     inkscape:window-maximized="1"
     inkscape:current-layer="layer1" />
  <defs
     id="defs1">
    <rect
       x="143.78745"
       y="559.13214"
       width="54.928741"
       height="50.509499"
       id="rect13" />
    <rect
       x="143.78745"
       y="559.13214"
       width="54.928741"
       height="50.509499"
       id="rect13-5" />
    <rect
       x="143.78745"
       y="559.13214"
       width="54.928741"
       height="50.509499"
       id="rect13-9" />
    <rect
       x="143.78745"
       y="559.13214"
       width="54.928741"
       height="50.509499"
       id="rect13-9-5" />
    <rect
       x="143.78745"
       y="559.13214"
       width="54.928741"
       height="50.509499"
       id="rect13-9-5-0" />
    <rect
       x="143.78745"
       y="559.13214"
       width="54.928741"
       height="50.509499"
       id="rect13-9-5-0-1" />
  </defs>
  <g
     inkscape:label="Layer 1"
     inkscape:groupmode="layer"
     id="layer1">
    <g
       id="g16"
       transform="translate(-27.649493,-147.03501)">
      <path
         id="rect1-9"
         style="fill:#692a22;stroke:#747474;stroke-width:0.7"
         transform="scale(-1)"
         d="m -168.00601,-185.19533 h 54.51166 v 16.46002 h -54.51166 z" />
      <path
         id="rect1-3-7"
         style="fill:#cf5443;stroke:#747474;stroke-width:0.7"
         transform="scale(-1)"
         d="m -113.17007,-185.19533 h 45.404929 v 16.45695 h -45.404929 z" />
      <path
         id="rect1-3-2-3"
         style="fill:#f6c2bc;stroke:#747474;stroke-width:0.7"
         transform="scale(-1)"
         d="m -67.230019,-185.19533 h 7.716312 v 16.4629 h -7.716312 z" />
      <path
         id="rect1-3-2-7-6"
         style="fill:#32a1e6;stroke:#747474;stroke-width:0.700063"
         transform="scale(-1)"
         d="m -59.242172,-185.1953 h 6.819344 v 16.45994 h -6.819344 z" />
      <path
         id="rect1-3-2-7-2-1"
         style="fill:#005ca1;stroke:#747474;stroke-width:0.7"
         transform="scale(-1)"
         d="m -52.107437,-185.19533 h 8.365364 v 16.46469 h -8.365364 z" />
      <path
         id="rect1-3-2-7-2-9-2"
         style="fill:#00457c;stroke-width:0.537724"
         transform="scale(-1)"
         d="m -43.558533,-185.31546 h 11.056876 v 16.46365 h -11.056876 z" />
      <path
         d="m 144.26711,567.30331 v -0.936 h 2.904 v 0.936 z m 6.68401,-2.508 q 1.32,0 2.1,0.66 0.78,0.66 0.78,1.86 0,1.332 -0.852,2.1 -0.84,0.756 -2.352,0.756 -0.66,0 -1.248,-0.12 -0.576,-0.12 -0.972,-0.348 v -0.996 q 0.432,0.264 1.044,0.42 0.624,0.144 1.188,0.144 0.948,0 1.524,-0.444 0.588,-0.456 0.588,-1.404 0,-0.84 -0.516,-1.284 -0.516,-0.456 -1.632,-0.456 -0.336,0 -0.768,0.06 -0.432,0.06 -0.696,0.12 l -0.528,-0.336 0.324,-4.044 h 4.296 v 0.96 h -3.396 l -0.204,2.484 q 0.204,-0.036 0.552,-0.084 0.348,-0.048 0.768,-0.048 z"
         id="text13"
         style="white-space:pre;fill:#333333;stroke-width:2.64567"
         transform="matrix(0.57343888,0,0,0.57343888,-42.932306,-168.53156)"
         aria-label="-5" />
      <path
         d="m 150.06311,565.75531 q 0,1.38 -0.288,2.376 -0.288,0.984 -0.912,1.512 -0.624,0.528 -1.656,0.528 -1.452,0 -2.148,-1.164 -0.684,-1.176 -0.684,-3.252 0,-1.392 0.276,-2.376 0.288,-0.984 0.912,-1.5 0.624,-0.528 1.644,-0.528 1.44,0 2.148,1.164 0.708,1.152 0.708,3.24 z m -4.632,0 q 0,1.764 0.396,2.64 0.408,0.876 1.38,0.876 0.96,0 1.368,-0.864 0.42,-0.876 0.42,-2.652 0,-1.752 -0.42,-2.628 -0.408,-0.876 -1.368,-0.876 -0.972,0 -1.38,0.876 -0.396,0.876 -0.396,2.628 z"
         id="text13-74"
         style="white-space:pre;fill:#333333;stroke-width:2.64567"
         transform="matrix(0.57343888,0,0,0.57343888,-32.212833,-129.92339)"
         aria-label="0" />
      <path
         d="m 147.08711,564.79531 q 1.32,0 2.1,0.66 0.78,0.66 0.78,1.86 0,1.332 -0.852,2.1 -0.84,0.756 -2.352,0.756 -0.66,0 -1.248,-0.12 -0.576,-0.12 -0.972,-0.348 v -0.996 q 0.432,0.264 1.044,0.42 0.624,0.144 1.188,0.144 0.948,0 1.524,-0.444 0.588,-0.456 0.588,-1.404 0,-0.84 -0.516,-1.284 -0.516,-0.456 -1.632,-0.456 -0.336,0 -0.768,0.06 -0.432,0.06 -0.696,0.12 l -0.528,-0.336 0.324,-4.044 h 4.296 v 0.96 h -3.396 l -0.204,2.484 q 0.204,-0.036 0.552,-0.084 0.348,-0.048 0.768,-0.048 z"
         id="text13-7"
         style="white-space:pre;fill:#333333;stroke-width:2.64567"
         transform="matrix(0.57343888,0,0,0.57343888,-24.930994,-168.53156)"
         aria-label="5" />
      <path
         d="m 148.04711,570.05131 h -1.032 v -5.988 q 0,-0.516 0.012,-0.828 0.012,-0.312 0.036,-0.648 -0.192,0.192 -0.348,0.324 -0.156,0.132 -0.396,0.336 l -0.912,0.744 -0.552,-0.708 2.316,-1.8 h 0.876 z m 8.88001,-4.296 q 0,1.38 -0.288,2.376 -0.288,0.984 -0.912,1.512 -0.624,0.528 -1.656,0.528 -1.452,0 -2.148,-1.164 -0.684,-1.176 -0.684,-3.252 0,-1.392 0.276,-2.376 0.288,-0.984 0.912,-1.5 0.624,-0.528 1.644,-0.528 1.44,0 2.148,1.164 0.708,1.152 0.708,3.24 z m -4.632,0 q 0,1.764 0.396,2.64 0.408,0.876 1.38,0.876 0.96,0 1.368,-0.864 0.42,-0.876 0.42,-2.652 0,-1.752 -0.42,-2.628 -0.408,-0.876 -1.368,-0.876 -0.972,0 -1.38,0.876 -0.396,0.876 -0.396,2.628 z"
         id="text13-7-3"
         style="white-space:pre;fill:#333333;stroke-width:2.64567"
         transform="matrix(0.57343888,0,0,0.57343888,-18.972659,-168.53156)"
         aria-label="10&#10;" />
      <path
         d="m 147.08711,564.79531 q 1.32,0 2.1,0.66 0.78,0.66 0.78,1.86 0,1.332 -0.852,2.1 -0.84,0.756 -2.352,0.756 -0.66,0 -1.248,-0.12 -0.576,-0.12 -0.972,-0.348 v -0.996 q 0.432,0.264 1.044,0.42 0.624,0.144 1.188,0.144 0.948,0 1.524,-0.444 0.588,-0.456 0.588,-1.404 0,-0.84 -0.516,-1.284 -0.516,-0.456 -1.632,-0.456 -0.336,0 -0.768,0.06 -0.432,0.06 -0.696,0.12 l -0.528,-0.336 0.324,-4.044 h 4.296 v 0.96 h -3.396 l -0.204,2.484 q 0.204,-0.036 0.552,-0.084 0.348,-0.048 0.768,-0.048 z m 9.84001,0.96 q 0,1.38 -0.288,2.376 -0.288,0.984 -0.912,1.512 -0.624,0.528 -1.656,0.528 -1.452,0 -2.148,-1.164 -0.684,-1.176 -0.684,-3.252 0,-1.392 0.276,-2.376 0.288,-0.984 0.912,-1.5 0.624,-0.528 1.644,-0.528 1.44,0 2.148,1.164 0.708,1.152 0.708,3.24 z m -4.632,0 q 0,1.764 0.396,2.64 0.408,0.876 1.38,0.876 0.96,0 1.368,-0.864 0.42,-0.876 0.42,-2.652 0,-1.752 -0.42,-2.628 -0.408,-0.876 -1.368,-0.876 -0.972,0 -1.38,0.876 -0.396,0.876 -0.396,2.628 z"
         id="text13-7-3-3"
         style="white-space:pre;fill:#333333;stroke-width:2.64567"
         transform="matrix(0.57343888,0,0,0.57343888,26.889726,-168.53156)"
         aria-label="50" />
      <path
         d="m 148.04711,570.05131 h -1.032 v -5.988 q 0,-0.516 0.012,-0.828 0.012,-0.312 0.036,-0.648 -0.192,0.192 -0.348,0.324 -0.156,0.132 -0.396,0.336 l -0.912,0.744 -0.552,-0.708 2.316,-1.8 h 0.876 z m 8.88001,-4.296 q 0,1.38 -0.288,2.376 -0.288,0.984 -0.912,1.512 -0.624,0.528 -1.656,0.528 -1.452,0 -2.148,-1.164 -0.684,-1.176 -0.684,-3.252 0,-1.392 0.276,-2.376 0.288,-0.984 0.912,-1.5 0.624,-0.528 1.644,-0.528 1.44,0 2.148,1.164 0.708,1.152 0.708,3.24 z m -4.632,0 q 0,1.764 0.396,2.64 0.408,0.876 1.38,0.876 0.96,0 1.368,-0.864 0.42,-0.876 0.42,-2.652 0,-1.752 -0.42,-2.628 -0.408,-0.876 -1.368,-0.876 -0.972,0 -1.38,0.876 -0.396,0.876 -0.396,2.628 z m 11.496,0 q 0,1.38 -0.288,2.376 -0.288,0.984 -0.912,1.512 -0.624,0.528 -1.656,0.528 -1.452,0 -2.148,-1.164 -0.684,-1.176 -0.684,-3.252 0,-1.392 0.276,-2.376 0.288,-0.984 0.912,-1.5 0.624,-0.528 1.644,-0.528 1.44,0 2.148,1.164 0.708,1.152 0.708,3.24 z m -4.632,0 q 0,1.764 0.396,2.64 0.408,0.876 1.38,0.876 0.96,0 1.368,-0.864 0.42,-0.876 0.42,-2.652 0,-1.752 -0.42,-2.628 -0.408,-0.876 -1.368,-0.876 -0.972,0 -1.38,0.876 -0.396,0.876 -0.396,2.628 z"
         id="text13-7-3-3-5"
         style="white-space:pre;fill:#333333;stroke-width:2.64567"
         transform="matrix(0.57343888,0,0,0.57343888,78.873131,-162.58641)"
         aria-label="100&#10;" />
      <path
         style="fill:#00457c;fill-opacity:1;stroke:none;stroke-width:0.7;stroke-dasharray:none;stroke-opacity:1"
         d="M 59.318466,185.50747 V 161.69959 Z"
         id="path13" />
      <path
         style="fill:#000000;fill-opacity:1;stroke:#747474;stroke-width:0.7;stroke-dasharray:none;stroke-opacity:1"
         d="m 59.510811,159.99505 v 25.55027 z"
         id="path14" />
      <path
         style="fill:#000000;fill-opacity:1;stroke:#747474;stroke-width:0.7;stroke-dasharray:none;stroke-opacity:1"
         d="M 52.208328,189.8566 V 164.30633 Z"
         id="path14-4" />
      <path
         style="fill:#000000;fill-opacity:1;stroke:#747474;stroke-width:0.7;stroke-dasharray:none;stroke-opacity:1"
         d="M 67.554171,185.09407 V 159.5438 Z"
         id="path14-6" />
      <path
         style="fill:#000000;fill-opacity:1;stroke:#747474;stroke-width:0.7;stroke-dasharray:none;stroke-opacity:1"
         d="M 113.3271,185.35866 V 159.80839 Z"
         id="path14-6-6" />
    </g>
  </g>
</svg>
