<?xml version="1.0" encoding="UTF-8" standalone="no"?>
<!-- Created with Inkscape (http://www.inkscape.org/) -->

<svg
   width="150mm"
   height="50mm"
   viewBox="0 0 150 50"
   version="1.1"
   id="svg1"
   inkscape:version="1.3 (0e150ed6c4, 2023-07-21)"
   sodipodi:docname="cobertura.svg"
   xmlns:inkscape="http://www.inkscape.org/namespaces/inkscape"
   xmlns:sodipodi="http://sodipodi.sourceforge.net/DTD/sodipodi-0.dtd"
   xmlns="http://www.w3.org/2000/svg"
   xmlns:svg="http://www.w3.org/2000/svg">
  <sodipodi:namedview
     id="namedview1"
     pagecolor="#ffffff"
     bordercolor="#000000"
     borderopacity="0.25"
     inkscape:showpageshadow="2"
     inkscape:pageopacity="0.0"
     inkscape:pagecheckerboard="0"
     inkscape:deskcolor="#d1d1d1"
     inkscape:document-units="mm"
     inkscape:zoom="1.1296016"
     inkscape:cx="390.40313"
     inkscape:cy="447.06027"
     inkscape:window-width="2560"
     inkscape:window-height="1560"
     inkscape:window-x="0"
     inkscape:window-y="0"
     inkscape:window-maximized="1"
     inkscape:current-layer="layer1" />
  <defs
     id="defs1">
    <rect
       x="143.78745"
       y="559.13214"
       width="54.928741"
       height="50.509499"
       id="rect13" />
    <rect
       x="143.78745"
       y="559.13214"
       width="54.928741"
       height="50.509499"
       id="rect13-5" />
    <rect
       x="143.78745"
       y="559.13214"
       width="54.928741"
       height="50.509499"
       id="rect13-9" />
    <rect
       x="143.78745"
       y="559.13214"
       width="54.928741"
       height="50.509499"
       id="rect13-9-5" />
    <rect
       x="143.78745"
       y="559.13214"
       width="54.928741"
       height="50.509499"
       id="rect13-9-5-0" />
    <rect
       x="143.78745"
       y="559.13214"
       width="54.928741"
       height="50.509499"
       id="rect13-9-5-0-1" />
    <rect
       x="143.78745"
       y="559.13214"
       width="54.928741"
       height="50.509499"
       id="rect13-5-4" />
    <rect
       x="143.78745"
       y="559.13214"
       width="54.928741"
       height="50.509499"
       id="rect13-5-5" />
    <rect
       x="143.78745"
       y="559.13214"
       width="54.928741"
       height="50.509499"
       id="rect13-9-5-0-6" />
    <rect
       x="143.78745"
       y="559.13214"
       width="54.928741"
       height="50.509499"
       id="rect13-9-5-0-6-5" />
    <rect
       x="143.78745"
       y="559.13214"
       width="54.928741"
       height="50.509499"
       id="rect13-9-5-0-6-5-2" />
    <rect
       x="143.78745"
       y="559.13214"
       width="54.928741"
       height="50.509499"
       id="rect13-9-5-0-6-5-2-7" />
  </defs>
  <g
     inkscape:label="Layer 1"
     inkscape:groupmode="layer"
     id="layer1">
    <g
       id="g17"
       transform="translate(-25.397532,-200.92238)">
      <path
         id="rect1"
         style="fill:#692a22;stroke:#747474;stroke-width:0.7"
         d="M 33.490658,222.65099 H 88.002323 V 239.111 H 33.490658 Z" />
      <path
         id="rect1-3"
         style="fill:#cf5443;stroke:#747474;stroke-width:0.697082"
         d="m 88.250366,222.64955 h 30.507844 v 16.46292 H 88.250366 Z" />
      <path
         id="rect1-3-2"
         style="fill:#f6c2bc;stroke:#747474;stroke-width:0.693614"
         d="m 119.21261,222.64781 h 12.53608 v 16.46639 h -12.53608 z" />
      <path
         id="rect1-3-2-7"
         style="fill:#32a1e6;stroke:#747474;stroke-width:0.690324"
         d="m 132.13084,222.64616 h 6.57024 v 16.46968 h -6.57024 z" />
      <path
         id="rect1-3-2-7-2"
         style="fill:#005ca1;stroke:#747474;stroke-width:0.696352"
         d="m 139.09312,222.64919 h 18.54265 v 16.46364 h -18.54265 z" />
      <path
         id="rect1-3-2-7-2-9"
         style="fill:#00457c;stroke-width:0.537724"
         d="m 157.93814,222.64919 h 11.05688 v 16.46364 h -11.05688 z" />
      <path
         d="m 150.06311,565.75531 q 0,1.38 -0.288,2.376 -0.288,0.984 -0.912,1.512 -0.624,0.528 -1.656,0.528 -1.452,0 -2.148,-1.164 -0.684,-1.176 -0.684,-3.252 0,-1.392 0.276,-2.376 0.288,-0.984 0.912,-1.5 0.624,-0.528 1.644,-0.528 1.44,0 2.148,1.164 0.708,1.152 0.708,3.24 z m -4.632,0 q 0,1.764 0.396,2.64 0.408,0.876 1.38,0.876 0.96,0 1.368,-0.864 0.42,-0.876 0.42,-2.652 0,-1.752 -0.42,-2.628 -0.408,-0.876 -1.368,-0.876 -0.972,0 -1.38,0.876 -0.396,0.876 -0.396,2.628 z"
         id="text13-74-1"
         style="white-space:pre;fill:#333333;stroke-width:2.64567"
         transform="matrix(0.57343888,0,0,0.57343888,-50.990254,-107.82168)"
         aria-label="0" />
      <path
         d="m 148.04711,570.05131 h -1.032 v -5.988 q 0,-0.516 0.012,-0.828 0.012,-0.312 0.036,-0.648 -0.192,0.192 -0.348,0.324 -0.156,0.132 -0.396,0.336 l -0.912,0.744 -0.552,-0.708 2.316,-1.8 h 0.876 z m 8.88001,-4.296 q 0,1.38 -0.288,2.376 -0.288,0.984 -0.912,1.512 -0.624,0.528 -1.656,0.528 -1.452,0 -2.148,-1.164 -0.684,-1.176 -0.684,-3.252 0,-1.392 0.276,-2.376 0.288,-0.984 0.912,-1.5 0.624,-0.528 1.644,-0.528 1.44,0 2.148,1.164 0.708,1.152 0.708,3.24 z m -4.632,0 q 0,1.764 0.396,2.64 0.408,0.876 1.38,0.876 0.96,0 1.368,-0.864 0.42,-0.876 0.42,-2.652 0,-1.752 -0.42,-2.628 -0.408,-0.876 -1.368,-0.876 -0.972,0 -1.38,0.876 -0.396,0.876 -0.396,2.628 z m 11.496,0 q 0,1.38 -0.288,2.376 -0.288,0.984 -0.912,1.512 -0.624,0.528 -1.656,0.528 -1.452,0 -2.148,-1.164 -0.684,-1.176 -0.684,-3.252 0,-1.392 0.276,-2.376 0.288,-0.984 0.912,-1.5 0.624,-0.528 1.644,-0.528 1.44,0 2.148,1.164 0.708,1.152 0.708,3.24 z m -4.632,0 q 0,1.764 0.396,2.64 0.408,0.876 1.38,0.876 0.96,0 1.368,-0.864 0.42,-0.876 0.42,-2.652 0,-1.752 -0.42,-2.628 -0.408,-0.876 -1.368,-0.876 -0.972,0 -1.38,0.876 -0.396,0.876 -0.396,2.628 z"
         id="text13-74-4"
         style="white-space:pre;fill:#333333;stroke-width:2.64567"
         transform="matrix(0.57343888,0,0,0.57343888,50.393055,-76.036015)"
         aria-label="100" />
      <path
         style="fill:#000000;fill-opacity:1;stroke:#747474;stroke-width:0.7;stroke-dasharray:none;stroke-opacity:1"
         d="M 138.88792,243.74395 V 218.19368 Z"
         id="path14-4-0" />
      <path
         d="m 147.08711,564.79531 q 1.32,0 2.1,0.66 0.78,0.66 0.78,1.86 0,1.332 -0.852,2.1 -0.84,0.756 -2.352,0.756 -0.66,0 -1.248,-0.12 -0.576,-0.12 -0.972,-0.348 v -0.996 q 0.432,0.264 1.044,0.42 0.624,0.144 1.188,0.144 0.948,0 1.524,-0.444 0.588,-0.456 0.588,-1.404 0,-0.84 -0.516,-1.284 -0.516,-0.456 -1.632,-0.456 -0.336,0 -0.768,0.06 -0.432,0.06 -0.696,0.12 l -0.528,-0.336 0.324,-4.044 h 4.296 v 0.96 h -3.396 l -0.204,2.484 q 0.204,-0.036 0.552,-0.084 0.348,-0.048 0.768,-0.048 z m 9.84001,0.96 q 0,1.38 -0.288,2.376 -0.288,0.984 -0.912,1.512 -0.624,0.528 -1.656,0.528 -1.452,0 -2.148,-1.164 -0.684,-1.176 -0.684,-3.252 0,-1.392 0.276,-2.376 0.288,-0.984 0.912,-1.5 0.624,-0.528 1.644,-0.528 1.44,0 2.148,1.164 0.708,1.152 0.708,3.24 z m -4.632,0 q 0,1.764 0.396,2.64 0.408,0.876 1.38,0.876 0.96,0 1.368,-0.864 0.42,-0.876 0.42,-2.652 0,-1.752 -0.42,-2.628 -0.408,-0.876 -1.368,-0.876 -0.972,0 -1.38,0.876 -0.396,0.876 -0.396,2.628 z"
         id="text13-7-3-3-9"
         style="white-space:pre;fill:#333333;stroke-width:2.64567"
         transform="matrix(0.57343888,0,0,0.57343888,1.6748066,-114.4543)"
         aria-label="50" />
      <path
         style="fill:#000000;fill-opacity:1;stroke:#747474;stroke-width:0.7;stroke-dasharray:none;stroke-opacity:1"
         d="M 88.112177,239.43592 V 213.88565 Z"
         id="path14-6-6-6" />
      <path
         d="m 147.20711,561.36331 q 1.128,0 1.848,0.528 0.72,0.528 0.72,1.524 0,0.516 -0.228,0.9 -0.216,0.384 -0.588,0.684 -0.372,0.288 -0.816,0.516 0.528,0.252 0.96,0.576 0.432,0.312 0.684,0.732 0.264,0.42 0.264,1.008 0,1.08 -0.768,1.716 -0.756,0.624 -2.04,0.624 -1.38,0 -2.124,-0.6 -0.744,-0.612 -0.744,-1.704 0,-0.588 0.24,-1.02 0.252,-0.432 0.66,-0.744 0.408,-0.312 0.876,-0.528 -0.624,-0.36 -1.068,-0.864 -0.432,-0.516 -0.432,-1.308 0,-0.66 0.336,-1.104 0.336,-0.456 0.912,-0.696 0.576,-0.24 1.308,-0.24 z m -0.012,0.852 q -0.66,0 -1.092,0.324 -0.42,0.312 -0.42,0.912 0,0.444 0.204,0.744 0.216,0.3 0.576,0.516 0.36,0.204 0.792,0.396 0.624,-0.264 1.044,-0.636 0.432,-0.372 0.432,-1.02 0,-0.6 -0.42,-0.912 -0.42,-0.324 -1.116,-0.324 z m -1.788,5.664 q 0,0.624 0.444,1.044 0.444,0.408 1.368,0.408 0.876,0 1.332,-0.408 0.468,-0.42 0.468,-1.08 0,-0.624 -0.492,-1.032 -0.492,-0.42 -1.308,-0.732 l -0.192,-0.072 q -0.792,0.336 -1.212,0.78 -0.408,0.432 -0.408,1.092 z m 11.52001,-2.124 q 0,1.38 -0.288,2.376 -0.288,0.984 -0.912,1.512 -0.624,0.528 -1.656,0.528 -1.452,0 -2.148,-1.164 -0.684,-1.176 -0.684,-3.252 0,-1.392 0.276,-2.376 0.288,-0.984 0.912,-1.5 0.624,-0.528 1.644,-0.528 1.44,0 2.148,1.164 0.708,1.152 0.708,3.24 z m -4.632,0 q 0,1.764 0.396,2.64 0.408,0.876 1.38,0.876 0.96,0 1.368,-0.864 0.42,-0.876 0.42,-2.652 0,-1.752 -0.42,-2.628 -0.408,-0.876 -1.368,-0.876 -0.972,0 -1.38,0.876 -0.396,0.876 -0.396,2.628 z"
         id="text13-7-3-3-9-4"
         style="white-space:pre;fill:#333333;stroke-width:2.64567"
         transform="matrix(0.57343888,0,0,0.57343888,32.503963,-114.44535)"
         aria-label="80" />
      <path
         style="fill:#000000;fill-opacity:1;stroke:#747474;stroke-width:0.7;stroke-dasharray:none;stroke-opacity:1"
         d="M 118.94135,239.44487 V 213.8946 Z"
         id="path14-6-6-6-7" />
      <path
         d="m 150.02711,565.14331 q 0,0.924 -0.168,1.824 -0.156,0.888 -0.588,1.62 -0.42,0.72 -1.2,1.152 -0.768,0.432 -1.98,0.432 -0.24,0 -0.564,-0.036 -0.312,-0.024 -0.516,-0.084 v -0.9 q 0.468,0.156 1.056,0.156 0.84,0 1.38,-0.276 0.552,-0.276 0.876,-0.744 0.324,-0.48 0.468,-1.104 0.144,-0.636 0.168,-1.332 h -0.072 q -0.264,0.408 -0.768,0.708 -0.492,0.288 -1.272,0.288 -1.104,0 -1.788,-0.672 -0.672,-0.684 -0.672,-1.92 0,-0.9 0.336,-1.548 0.348,-0.648 0.96,-0.996 0.612,-0.348 1.44,-0.348 0.816,0 1.476,0.42 0.66,0.408 1.044,1.248 0.384,0.828 0.384,2.112 z m -2.904,-2.892 q -0.744,0 -1.224,0.492 -0.468,0.492 -0.468,1.5 0,0.828 0.396,1.308 0.408,0.468 1.248,0.468 0.576,0 0.996,-0.228 0.42,-0.24 0.648,-0.6 0.24,-0.36 0.24,-0.744 0,-0.516 -0.204,-1.02 -0.204,-0.504 -0.612,-0.84 -0.408,-0.336 -1.02,-0.336 z m 6.82801,2.544 q 1.32,0 2.1,0.66 0.78,0.66 0.78,1.86 0,1.332 -0.852,2.1 -0.84,0.756 -2.352,0.756 -0.66,0 -1.248,-0.12 -0.576,-0.12 -0.972,-0.348 v -0.996 q 0.432,0.264 1.044,0.42 0.624,0.144 1.188,0.144 0.948,0 1.524,-0.444 0.588,-0.456 0.588,-1.404 0,-0.84 -0.516,-1.284 -0.516,-0.456 -1.632,-0.456 -0.336,0 -0.768,0.06 -0.432,0.06 -0.696,0.12 l -0.528,-0.336 0.324,-4.044 h 4.296 v 0.96 h -3.396 l -0.204,2.484 q 0.204,-0.036 0.552,-0.084 0.348,-0.048 0.768,-0.048 z"
         id="text13-7-3-3-9-4-2"
         style="white-space:pre;fill:#333333;stroke-width:2.64567"
         transform="matrix(0.57343888,0,0,0.57343888,45.48926,-114.42001)"
         aria-label="95" />
      <path
         style="fill:#000000;fill-opacity:1;stroke:#747474;stroke-width:0.7;stroke-dasharray:none;stroke-opacity:1"
         d="M 131.9266,239.47021 V 213.91994 Z"
         id="path14-6-6-6-7-0" />
      <path
         d="m 148.04711,570.05131 h -1.032 v -5.988 q 0,-0.516 0.012,-0.828 0.012,-0.312 0.036,-0.648 -0.192,0.192 -0.348,0.324 -0.156,0.132 -0.396,0.336 l -0.912,0.744 -0.552,-0.708 2.316,-1.8 h 0.876 z m 8.84401,0 h -5.664 v -0.876 l 2.244,-2.268 q 0.648,-0.648 1.092,-1.152 0.444,-0.504 0.672,-0.984 0.228,-0.492 0.228,-1.068 0,-0.708 -0.42,-1.068 -0.42,-0.372 -1.092,-0.372 -0.624,0 -1.104,0.216 -0.468,0.216 -0.96,0.6 l -0.564,-0.708 q 0.504,-0.42 1.152,-0.708 0.66,-0.3 1.476,-0.3 1.2,0 1.896,0.612 0.696,0.6 0.696,1.668 0,0.672 -0.276,1.26 -0.276,0.588 -0.768,1.164 -0.492,0.564 -1.152,1.212 l -1.788,1.764 v 0.048 h 4.332 z m 6.9,-4.296 q 0,1.38 -0.288,2.376 -0.288,0.984 -0.912,1.512 -0.624,0.528 -1.656,0.528 -1.452,0 -2.148,-1.164 -0.684,-1.176 -0.684,-3.252 0,-1.392 0.276,-2.376 0.288,-0.984 0.912,-1.5 0.624,-0.528 1.644,-0.528 1.44,0 2.148,1.164 0.708,1.152 0.708,3.24 z m -4.632,0 q 0,1.764 0.396,2.64 0.408,0.876 1.38,0.876 0.96,0 1.368,-0.864 0.42,-0.876 0.42,-2.652 0,-1.752 -0.42,-2.628 -0.408,-0.876 -1.368,-0.876 -0.972,0 -1.38,0.876 -0.396,0.876 -0.396,2.628 z"
         id="text13-7-3-3-9-4-2-1"
         style="white-space:pre;fill:#333333;stroke-width:2.64567"
         transform="matrix(0.57343888,0,0,0.57343888,69.134316,-114.4381)"
         aria-label="120" />
      <path
         style="fill:#000000;fill-opacity:1;stroke:#747474;stroke-width:0.7;stroke-dasharray:none;stroke-opacity:1"
         d="M 157.62919,239.45212 V 213.90185 Z"
         id="path14-6-6-6-7-0-5" />
    </g>
  </g>
</svg>
