<?xml version="1.0" encoding="UTF-8" standalone="no"?>
<!-- Created with Inkscape (http://www.inkscape.org/) -->

<svg
   width="150mm"
   height="50mm"
   viewBox="0 0 150 50"
   version="1.1"
   id="svg1"
   inkscape:version="1.3 (0e150ed6c4, 2023-07-21)"
   sodipodi:docname="ohm_vac.svg"
   xmlns:inkscape="http://www.inkscape.org/namespaces/inkscape"
   xmlns:sodipodi="http://sodipodi.sourceforge.net/DTD/sodipodi-0.dtd"
   xmlns="http://www.w3.org/2000/svg"
   xmlns:svg="http://www.w3.org/2000/svg">
  <sodipodi:namedview
     id="namedview1"
     pagecolor="#ffffff"
     bordercolor="#000000"
     borderopacity="0.25"
     inkscape:showpageshadow="2"
     inkscape:pageopacity="0.0"
     inkscape:pagecheckerboard="0"
     inkscape:deskcolor="#d1d1d1"
     inkscape:document-units="mm"
     inkscape:zoom="1.0181657"
     inkscape:cx="204.28895"
     inkscape:cy="108.03742"
     inkscape:window-width="2560"
     inkscape:window-height="1560"
     inkscape:window-x="0"
     inkscape:window-y="0"
     inkscape:window-maximized="1"
     inkscape:current-layer="g3" />
  <defs
     id="defs1">
    <rect
       x="143.78745"
       y="559.13214"
       width="54.928741"
       height="50.509499"
       id="rect13" />
    <rect
       x="143.78745"
       y="559.13214"
       width="54.928741"
       height="50.509499"
       id="rect13-5" />
    <rect
       x="143.78745"
       y="559.13214"
       width="54.928741"
       height="50.509499"
       id="rect13-9" />
    <rect
       x="143.78745"
       y="559.13214"
       width="54.928741"
       height="50.509499"
       id="rect13-9-5" />
    <rect
       x="143.78745"
       y="559.13214"
       width="54.928741"
       height="50.509499"
       id="rect13-9-5-0" />
    <rect
       x="143.78745"
       y="559.13214"
       width="54.928741"
       height="50.509499"
       id="rect13-9-5-0-1" />
    <rect
       x="143.78745"
       y="559.13214"
       width="54.928741"
       height="50.509499"
       id="rect13-5-4" />
    <rect
       x="143.78745"
       y="559.13214"
       width="54.928741"
       height="50.509499"
       id="rect13-5-5" />
    <rect
       x="143.78745"
       y="559.13214"
       width="54.928741"
       height="50.509499"
       id="rect13-9-5-0-6" />
    <rect
       x="143.78745"
       y="559.13214"
       width="54.928741"
       height="50.509499"
       id="rect13-9-5-0-6-5" />
    <rect
       x="143.78745"
       y="559.13214"
       width="54.928741"
       height="50.509499"
       id="rect13-9-5-0-6-5-2" />
    <rect
       x="143.78745"
       y="559.13214"
       width="54.928741"
       height="50.509499"
       id="rect13-9-5-0-6-5-2-7" />
    <rect
       x="143.78745"
       y="559.13214"
       width="54.928741"
       height="50.509499"
       id="rect13-9-9-2" />
    <rect
       x="143.78745"
       y="559.13214"
       width="54.928741"
       height="50.509499"
       id="rect13-9-9-6-0" />
    <rect
       x="143.78745"
       y="559.13214"
       width="54.928741"
       height="50.509499"
       id="rect13-9-9-6-9-6" />
    <rect
       x="143.78745"
       y="559.13214"
       width="54.928741"
       height="50.509499"
       id="rect13-9-9-6-9-0-1" />
    <rect
       x="143.78745"
       y="559.13214"
       width="54.928741"
       height="50.509499"
       id="rect13-9-9" />
    <rect
       x="143.78745"
       y="559.13214"
       width="54.928741"
       height="50.509499"
       id="rect13-9-9-6" />
    <rect
       x="143.78745"
       y="559.13214"
       width="54.928741"
       height="50.509499"
       id="rect13-9-9-6-9" />
    <rect
       x="143.78745"
       y="559.13214"
       width="54.928741"
       height="50.509499"
       id="rect13-9-9-6-9-0" />
  </defs>
  <g
     inkscape:label="Layer 1"
     inkscape:groupmode="layer"
     id="layer1">
    <g
       id="g1"
       transform="translate(1.0753103,2.8908648)">
      <g
         id="g2"
         transform="translate(0,0.1448537)">
        <g
           id="g3"
           transform="translate(-4.171775,2.4409009)">
          <path
             id="rect1-9-3"
             style="fill:#005ca1;stroke:#747474;stroke-width:0.680626"
             transform="scale(-1)"
             d="m -145.57524,-35.687412 h 26.29766 v 16.493803 h -26.29766 z" />
          <path
             id="rect1-3-7-6"
             style="fill:#32a1e6;stroke:#747474;stroke-width:0.727023"
             transform="scale(-1)"
             d="m -118.81065,-35.664188 h 23.752623 v 16.447567 h -23.752623 z" />
          <path
             id="rect1-3-2-3-0"
             style="fill:#f6c2bc;stroke:#747474;stroke-width:0.719774"
             transform="scale(-1)"
             d="m -94.878006,-35.66782 h 29.630291 v 16.437807 h -29.630291 z" />
          <path
             id="rect1-3-2-7-6-6"
             style="fill:#cf5443;stroke:#747474;stroke-width:0.690303"
             transform="scale(-1)"
             d="m -65.250793,-35.68256 h 28.63204 v 16.464724 h -28.63204 z" />
          <path
             id="rect1-3-2-7-2-1-2"
             style="fill:#692a22;stroke:#747474;stroke-width:0.760698"
             transform="scale(-1)"
             d="m -36.489971,-35.647343 h 25.832247 v 16.401083 h -25.832247 z" />
          <path
             d="m 150.02711,570.05131 h -5.664 v -0.876 l 2.244,-2.268 q 0.648,-0.648 1.092,-1.152 0.444,-0.504 0.672,-0.984 0.228,-0.492 0.228,-1.068 0,-0.708 -0.42,-1.068 -0.42,-0.372 -1.092,-0.372 -0.624,0 -1.104,0.216 -0.468,0.216 -0.96,0.6 l -0.564,-0.708 q 0.504,-0.42 1.152,-0.708 0.66,-0.3 1.476,-0.3 1.2,0 1.896,0.612 0.696,0.6 0.696,1.668 0,0.672 -0.276,1.26 -0.276,0.588 -0.768,1.164 -0.492,0.564 -1.152,1.212 l -1.788,1.764 v 0.048 h 4.332 z m 6.90001,-4.296 q 0,1.38 -0.288,2.376 -0.288,0.984 -0.912,1.512 -0.624,0.528 -1.656,0.528 -1.452,0 -2.148,-1.164 -0.684,-1.176 -0.684,-3.252 0,-1.392 0.276,-2.376 0.288,-0.984 0.912,-1.5 0.624,-0.528 1.644,-0.528 1.44,0 2.148,1.164 0.708,1.152 0.708,3.24 z m -4.632,0 q 0,1.764 0.396,2.64 0.408,0.876 1.38,0.876 0.96,0 1.368,-0.864 0.42,-0.876 0.42,-2.652 0,-1.752 -0.42,-2.628 -0.408,-0.876 -1.368,-0.876 -0.972,0 -1.38,0.876 -0.396,0.876 -0.396,2.628 z m 7.56,-4.392 q 0.888,0 1.344,0.708 0.456,0.696 0.456,1.968 0,1.272 -0.444,1.992 -0.432,0.708 -1.356,0.708 -0.852,0 -1.308,-0.708 -0.444,-0.72 -0.444,-1.992 0,-1.272 0.42,-1.968 0.42,-0.708 1.332,-0.708 z m 5.484,0.12 -4.752,8.568 h -0.924 l 4.752,-8.568 z m -5.484,0.624 q -0.456,0 -0.672,0.492 -0.204,0.48 -0.204,1.44 0,0.96 0.204,1.452 0.216,0.492 0.672,0.492 0.924,0 0.924,-1.944 0,-1.932 -0.924,-1.932 z m 5.244,2.688 q 0.876,0 1.332,0.708 0.468,0.696 0.468,1.968 0,1.272 -0.444,1.992 -0.432,0.708 -1.356,0.708 -0.852,0 -1.308,-0.708 -0.444,-0.72 -0.444,-1.992 0,-1.272 0.42,-1.968 0.42,-0.708 1.332,-0.708 z m 0,0.756 q -0.456,0 -0.672,0.48 -0.204,0.48 -0.204,1.44 0,0.972 0.204,1.464 0.216,0.48 0.672,0.48 0.924,0 0.924,-1.944 0,-1.92 -0.924,-1.92 z"
             id="text13-7-7"
             style="white-space:pre;fill:#333333;stroke-width:2.64567"
             transform="matrix(0.59060827,0,0,0.57343888,-55.374554,-318.7826)"
             aria-label="20%&#10;" />
          <path
             style="fill:#00457c;fill-opacity:1;stroke:none;stroke-width:0.710402;stroke-dasharray:none;stroke-opacity:1"
             d="M 36.905508,35.785602 V 11.977722 Z"
             id="path13-9" />
          <path
             style="fill:#000000;fill-opacity:1;stroke:#747474;stroke-width:0.710402;stroke-dasharray:none;stroke-opacity:1"
             d="m 36.542471,10.273182 v 25.55027 z"
             id="path14-2" />
          <path
             d="m 150.41111,568.10731 h -1.248 v 1.944 h -1.02 v -1.944 h -4.104 v -0.9 l 4.032,-5.772 h 1.092 v 5.724 h 1.248 z m -2.268,-3.648 q 0,-0.624 0.024,-1.056 0.024,-0.444 0.036,-0.84 h -0.048 q -0.096,0.228 -0.24,0.492 -0.144,0.264 -0.276,0.444 l -2.568,3.66 h 3.072 z m 8.78401,1.296 q 0,1.38 -0.288,2.376 -0.288,0.984 -0.912,1.512 -0.624,0.528 -1.656,0.528 -1.452,0 -2.148,-1.164 -0.684,-1.176 -0.684,-3.252 0,-1.392 0.276,-2.376 0.288,-0.984 0.912,-1.5 0.624,-0.528 1.644,-0.528 1.44,0 2.148,1.164 0.708,1.152 0.708,3.24 z m -4.632,0 q 0,1.764 0.396,2.64 0.408,0.876 1.38,0.876 0.96,0 1.368,-0.864 0.42,-0.876 0.42,-2.652 0,-1.752 -0.42,-2.628 -0.408,-0.876 -1.368,-0.876 -0.972,0 -1.38,0.876 -0.396,0.876 -0.396,2.628 z m 7.56,-4.392 q 0.888,0 1.344,0.708 0.456,0.696 0.456,1.968 0,1.272 -0.444,1.992 -0.432,0.708 -1.356,0.708 -0.852,0 -1.308,-0.708 -0.444,-0.72 -0.444,-1.992 0,-1.272 0.42,-1.968 0.42,-0.708 1.332,-0.708 z m 5.484,0.12 -4.752,8.568 h -0.924 l 4.752,-8.568 z m -5.484,0.624 q -0.456,0 -0.672,0.492 -0.204,0.48 -0.204,1.44 0,0.96 0.204,1.452 0.216,0.492 0.672,0.492 0.924,0 0.924,-1.944 0,-1.932 -0.924,-1.932 z m 5.244,2.688 q 0.876,0 1.332,0.708 0.468,0.696 0.468,1.968 0,1.272 -0.444,1.992 -0.432,0.708 -1.356,0.708 -0.852,0 -1.308,-0.708 -0.444,-0.72 -0.444,-1.992 0,-1.272 0.42,-1.968 0.42,-0.708 1.332,-0.708 z m 0,0.756 q -0.456,0 -0.672,0.48 -0.204,0.48 -0.204,1.44 0,0.972 0.204,1.464 0.216,0.48 0.672,0.48 0.924,0 0.924,-1.944 0,-1.92 -0.924,-1.92 z"
             id="text13-7-7-2"
             style="white-space:pre;fill:#333333;stroke-width:2.64567"
             transform="matrix(0.59060827,0,0,0.57343888,-26.594379,-318.9128)"
             aria-label="40%&#10;" />
          <path
             style="fill:#000000;fill-opacity:1;stroke:#747474;stroke-width:0.710402;stroke-dasharray:none;stroke-opacity:1"
             d="m 65.322643,10.142982 v 25.55027 z"
             id="path14-2-9" />
          <path
             d="m 144.44711,566.39131 q 0,-0.924 0.156,-1.812 0.168,-0.9 0.588,-1.62 0.432,-0.732 1.2,-1.164 0.768,-0.432 1.98,-0.432 0.252,0 0.552,0.024 0.312,0.024 0.504,0.084 v 0.9 q -0.216,-0.072 -0.492,-0.108 -0.264,-0.036 -0.54,-0.036 -0.828,0 -1.38,0.276 -0.552,0.276 -0.876,0.756 -0.312,0.48 -0.456,1.104 -0.144,0.624 -0.18,1.332 h 0.072 q 0.276,-0.42 0.768,-0.708 0.492,-0.3 1.26,-0.3 1.116,0 1.8,0.684 0.684,0.672 0.684,1.92 0,1.344 -0.744,2.112 -0.732,0.768 -1.98,0.768 -0.816,0 -1.476,-0.408 -0.66,-0.408 -1.056,-1.248 -0.384,-0.84 -0.384,-2.124 z m 2.904,2.892 q 0.756,0 1.224,-0.48 0.468,-0.492 0.468,-1.512 0,-0.816 -0.42,-1.296 -0.408,-0.48 -1.236,-0.48 -0.564,0 -0.984,0.24 -0.42,0.228 -0.66,0.588 -0.228,0.36 -0.228,0.744 0,0.516 0.204,1.032 0.204,0.504 0.612,0.84 0.408,0.324 1.02,0.324 z m 9.57601,-3.528 q 0,1.38 -0.288,2.376 -0.288,0.984 -0.912,1.512 -0.624,0.528 -1.656,0.528 -1.452,0 -2.148,-1.164 -0.684,-1.176 -0.684,-3.252 0,-1.392 0.276,-2.376 0.288,-0.984 0.912,-1.5 0.624,-0.528 1.644,-0.528 1.44,0 2.148,1.164 0.708,1.152 0.708,3.24 z m -4.632,0 q 0,1.764 0.396,2.64 0.408,0.876 1.38,0.876 0.96,0 1.368,-0.864 0.42,-0.876 0.42,-2.652 0,-1.752 -0.42,-2.628 -0.408,-0.876 -1.368,-0.876 -0.972,0 -1.38,0.876 -0.396,0.876 -0.396,2.628 z m 7.56,-4.392 q 0.888,0 1.344,0.708 0.456,0.696 0.456,1.968 0,1.272 -0.444,1.992 -0.432,0.708 -1.356,0.708 -0.852,0 -1.308,-0.708 -0.444,-0.72 -0.444,-1.992 0,-1.272 0.42,-1.968 0.42,-0.708 1.332,-0.708 z m 5.484,0.12 -4.752,8.568 h -0.924 l 4.752,-8.568 z m -5.484,0.624 q -0.456,0 -0.672,0.492 -0.204,0.48 -0.204,1.44 0,0.96 0.204,1.452 0.216,0.492 0.672,0.492 0.924,0 0.924,-1.944 0,-1.932 -0.924,-1.932 z m 5.244,2.688 q 0.876,0 1.332,0.708 0.468,0.696 0.468,1.968 0,1.272 -0.444,1.992 -0.432,0.708 -1.356,0.708 -0.852,0 -1.308,-0.708 -0.444,-0.72 -0.444,-1.992 0,-1.272 0.42,-1.968 0.42,-0.708 1.332,-0.708 z m 0,0.756 q -0.456,0 -0.672,0.48 -0.204,0.48 -0.204,1.44 0,0.972 0.204,1.464 0.216,0.48 0.672,0.48 0.924,0 0.924,-1.944 0,-1.92 -0.924,-1.92 z"
             id="text13-7-7-2-7"
             style="white-space:pre;fill:#333333;stroke-width:2.64567"
             transform="matrix(0.59060827,0,0,0.57343888,3.0533894,-318.57573)"
             aria-label="60%&#10;" />
          <path
             style="fill:#000000;fill-opacity:1;stroke:#747474;stroke-width:0.710402;stroke-dasharray:none;stroke-opacity:1"
             d="m 94.970399,10.480052 v 25.55027 z"
             id="path14-2-9-8" />
          <path
             d="m 147.20711,561.36331 q 1.128,0 1.848,0.528 0.72,0.528 0.72,1.524 0,0.516 -0.228,0.9 -0.216,0.384 -0.588,0.684 -0.372,0.288 -0.816,0.516 0.528,0.252 0.96,0.576 0.432,0.312 0.684,0.732 0.264,0.42 0.264,1.008 0,1.08 -0.768,1.716 -0.756,0.624 -2.04,0.624 -1.38,0 -2.124,-0.6 -0.744,-0.612 -0.744,-1.704 0,-0.588 0.24,-1.02 0.252,-0.432 0.66,-0.744 0.408,-0.312 0.876,-0.528 -0.624,-0.36 -1.068,-0.864 -0.432,-0.516 -0.432,-1.308 0,-0.66 0.336,-1.104 0.336,-0.456 0.912,-0.696 0.576,-0.24 1.308,-0.24 z m -0.012,0.852 q -0.66,0 -1.092,0.324 -0.42,0.312 -0.42,0.912 0,0.444 0.204,0.744 0.216,0.3 0.576,0.516 0.36,0.204 0.792,0.396 0.624,-0.264 1.044,-0.636 0.432,-0.372 0.432,-1.02 0,-0.6 -0.42,-0.912 -0.42,-0.324 -1.116,-0.324 z m -1.788,5.664 q 0,0.624 0.444,1.044 0.444,0.408 1.368,0.408 0.876,0 1.332,-0.408 0.468,-0.42 0.468,-1.08 0,-0.624 -0.492,-1.032 -0.492,-0.42 -1.308,-0.732 l -0.192,-0.072 q -0.792,0.336 -1.212,0.78 -0.408,0.432 -0.408,1.092 z m 11.52001,-2.124 q 0,1.38 -0.288,2.376 -0.288,0.984 -0.912,1.512 -0.624,0.528 -1.656,0.528 -1.452,0 -2.148,-1.164 -0.684,-1.176 -0.684,-3.252 0,-1.392 0.276,-2.376 0.288,-0.984 0.912,-1.5 0.624,-0.528 1.644,-0.528 1.44,0 2.148,1.164 0.708,1.152 0.708,3.24 z m -4.632,0 q 0,1.764 0.396,2.64 0.408,0.876 1.38,0.876 0.96,0 1.368,-0.864 0.42,-0.876 0.42,-2.652 0,-1.752 -0.42,-2.628 -0.408,-0.876 -1.368,-0.876 -0.972,0 -1.38,0.876 -0.396,0.876 -0.396,2.628 z m 7.56,-4.392 q 0.888,0 1.344,0.708 0.456,0.696 0.456,1.968 0,1.272 -0.444,1.992 -0.432,0.708 -1.356,0.708 -0.852,0 -1.308,-0.708 -0.444,-0.72 -0.444,-1.992 0,-1.272 0.42,-1.968 0.42,-0.708 1.332,-0.708 z m 5.484,0.12 -4.752,8.568 h -0.924 l 4.752,-8.568 z m -5.484,0.624 q -0.456,0 -0.672,0.492 -0.204,0.48 -0.204,1.44 0,0.96 0.204,1.452 0.216,0.492 0.672,0.492 0.924,0 0.924,-1.944 0,-1.932 -0.924,-1.932 z m 5.244,2.688 q 0.876,0 1.332,0.708 0.468,0.696 0.468,1.968 0,1.272 -0.444,1.992 -0.432,0.708 -1.356,0.708 -0.852,0 -1.308,-0.708 -0.444,-0.72 -0.444,-1.992 0,-1.272 0.42,-1.968 0.42,-0.708 1.332,-0.708 z m 0,0.756 q -0.456,0 -0.672,0.48 -0.204,0.48 -0.204,1.44 0,0.972 0.204,1.464 0.216,0.48 0.672,0.48 0.924,0 0.924,-1.944 0,-1.92 -0.924,-1.92 z"
             id="text13-7-7-2-7-6"
             style="white-space:pre;fill:#333333;stroke-width:2.64567"
             transform="matrix(0.59060827,0,0,0.57343888,27.105913,-318.58763)"
             aria-label="80%&#10;" />
          <path
             style="fill:#000000;fill-opacity:1;stroke:#747474;stroke-width:0.710402;stroke-dasharray:none;stroke-opacity:1"
             d="m 119.02648,10.468152 v 25.55027 z"
             id="path14-2-9-8-0" />
        </g>
      </g>
    </g>
  </g>
</svg>
