<?xml version="1.0" encoding="UTF-8" standalone="no"?>
<!-- Created with Inkscape (http://www.inkscape.org/) -->

<svg
   width="150mm"
   height="50mm"
   viewBox="0 0 150 50"
   version="1.1"
   id="svg1"
   inkscape:version="1.3 (0e150ed6c4, 2023-07-21)"
   sodipodi:docname="ohm_geo.svg"
   xmlns:inkscape="http://www.inkscape.org/namespaces/inkscape"
   xmlns:sodipodi="http://sodipodi.sourceforge.net/DTD/sodipodi-0.dtd"
   xmlns="http://www.w3.org/2000/svg"
   xmlns:svg="http://www.w3.org/2000/svg">
  <sodipodi:namedview
     id="namedview1"
     pagecolor="#ffffff"
     bordercolor="#000000"
     borderopacity="0.25"
     inkscape:showpageshadow="2"
     inkscape:pageopacity="0.0"
     inkscape:pagecheckerboard="0"
     inkscape:deskcolor="#d1d1d1"
     inkscape:document-units="mm"
     inkscape:zoom="1.4892754"
     inkscape:cx="77.218761"
     inkscape:cy="202.11171"
     inkscape:window-width="2560"
     inkscape:window-height="1560"
     inkscape:window-x="0"
     inkscape:window-y="0"
     inkscape:window-maximized="1"
     inkscape:current-layer="g1" />
  <defs
     id="defs1">
    <rect
       x="143.78745"
       y="559.13214"
       width="54.928741"
       height="50.509499"
       id="rect13" />
    <rect
       x="143.78745"
       y="559.13214"
       width="54.928741"
       height="50.509499"
       id="rect13-5" />
    <rect
       x="143.78745"
       y="559.13214"
       width="54.928741"
       height="50.509499"
       id="rect13-9" />
    <rect
       x="143.78745"
       y="559.13214"
       width="54.928741"
       height="50.509499"
       id="rect13-9-5" />
    <rect
       x="143.78745"
       y="559.13214"
       width="54.928741"
       height="50.509499"
       id="rect13-9-5-0" />
    <rect
       x="143.78745"
       y="559.13214"
       width="54.928741"
       height="50.509499"
       id="rect13-9-5-0-1" />
    <rect
       x="143.78745"
       y="559.13214"
       width="54.928741"
       height="50.509499"
       id="rect13-5-4" />
    <rect
       x="143.78745"
       y="559.13214"
       width="54.928741"
       height="50.509499"
       id="rect13-5-5" />
    <rect
       x="143.78745"
       y="559.13214"
       width="54.928741"
       height="50.509499"
       id="rect13-9-5-0-6" />
    <rect
       x="143.78745"
       y="559.13214"
       width="54.928741"
       height="50.509499"
       id="rect13-9-5-0-6-5" />
    <rect
       x="143.78745"
       y="559.13214"
       width="54.928741"
       height="50.509499"
       id="rect13-9-5-0-6-5-2" />
    <rect
       x="143.78745"
       y="559.13214"
       width="54.928741"
       height="50.509499"
       id="rect13-9-5-0-6-5-2-7" />
    <rect
       x="143.78745"
       y="559.13214"
       width="54.928741"
       height="50.509499"
       id="rect13-9-9-2" />
    <rect
       x="143.78745"
       y="559.13214"
       width="54.928741"
       height="50.509499"
       id="rect13-9-9-6-0" />
    <rect
       x="143.78745"
       y="559.13214"
       width="54.928741"
       height="50.509499"
       id="rect13-9-9-6-9-6" />
    <rect
       x="143.78745"
       y="559.13214"
       width="54.928741"
       height="50.509499"
       id="rect13-9-9-6-9-0-1" />
  </defs>
  <g
     inkscape:label="Layer 1"
     inkscape:groupmode="layer"
     id="layer1">
    <g
       id="g1"
       transform="translate(1.0753103,2.8908648)">
      <g
         id="g2"
         transform="translate(0,-8.4480738)">
        <g
           id="g3"
           transform="translate(0,8.5929275)">
          <path
             id="rect1-9-3-5"
             style="fill:#005ca1;stroke:#747474;stroke-width:0.69395"
             d="m -141.46872,-37.949249 h 8.85773 v 16.476211 h -8.85773 z"
             transform="scale(-1)" />
          <path
             id="rect1-3-7-6-4"
             style="fill:#32a1e6;stroke:#747474;stroke-width:0.701674"
             d="m -132.38257,-37.94545 h 27.82276 v 16.468601 h -27.82276 z"
             transform="scale(-1)" />
          <path
             id="rect1-3-2-3-0-7"
             style="fill:#f6c2bc;stroke:#747474;stroke-width:0.700521"
             d="m -104.73979,-37.946014 h 29.035839 v 16.469736 h -29.035839 z"
             transform="scale(-1)" />
          <path
             id="rect1-3-2-7-6-6-6"
             style="fill:#cf5443;stroke:#747474;stroke-width:0.703839"
             d="m -75.742622,-37.944382 h 45.86565 v 16.466467 h -45.86565 z"
             transform="scale(-1)" />
          <path
             id="rect1-3-2-7-2-1-2-5"
             style="fill:#692a22;stroke:#747474;stroke-width:0.700629"
             d="m -29.611874,-37.945953 h 23.2278751 v 16.469629 H -29.611874 Z"
             transform="scale(-1)" />
          <path
             d="M 26.424915,10.546127 H 23.07971 v -0.502332 l 1.325325,-1.3005596 q 0.382714,-0.3715884 0.644944,-0.6606015 0.26223,-0.2890132 0.396889,-0.5642639 0.134658,-0.2821319 0.134658,-0.6124327 0,-0.4059948 -0.248055,-0.6124328 -0.248056,-0.2133192 -0.644944,-0.2133192 -0.36854,0 -0.652032,0.1238628 -0.276405,0.1238628 -0.566984,0.3440633 L 23.136408,6.1421167 q 0.297667,-0.2408443 0.680381,-0.4059947 0.389801,-0.1720317 0.871738,-0.1720317 0.70873,0 1.119793,0.3509446 0.411063,0.3440633 0.411063,0.956496 0,0.385351 -0.163008,0.722533 -0.163008,0.3371821 -0.453587,0.6674829 -0.290579,0.3234195 -0.680381,0.6950079 L 23.8664,9.9681009 v 0.027525 h 2.558515 z m 4.075203,-2.4634931 q 0,0.7913456 -0.170095,1.3624907 -0.170096,0.5642634 -0.538635,0.8670394 -0.36854,0.302776 -0.978047,0.302776 -0.857564,0 -1.268627,-0.6674829 -0.403976,-0.6743641 -0.403976,-1.8648232 0,-0.798227 0.163008,-1.3624908 0.170095,-0.5642639 0.538635,-0.8601583 0.368539,-0.3027758 0.97096,-0.3027758 0.850476,0 1.268626,0.6674829 0.418151,0.6606016 0.418151,1.857942 z m -2.735698,0 q 0,1.0115461 0.233881,1.5138786 0.240968,0.5023325 0.81504,0.5023325 0.566984,0 0.807952,-0.4954512 0.248055,-0.5023325 0.248055,-1.5207599 0,-1.004665 -0.248055,-1.5069974 -0.240968,-0.5023325 -0.807952,-0.5023325 -0.574072,0 -0.81504,0.5023325 -0.233881,0.5023324 -0.233881,1.5069974 z m 4.464999,-2.5185436 q 0.52446,0 0.793777,0.4059947 0.269318,0.3991135 0.269318,1.1285277 0,0.7294143 -0.26223,1.1422903 -0.255143,0.4059947 -0.800865,0.4059947 -0.503198,0 -0.772516,-0.4059947 -0.26223,-0.412876 -0.26223,-1.1422903 0,-0.7294142 0.248056,-1.1285277 0.248055,-0.4059947 0.78669,-0.4059947 z m 3.238896,0.068813 -2.806571,4.9132237 h -0.545722 l 2.806571,-4.9132237 z m -3.238896,0.3578258 q -0.269317,0 -0.396889,0.2821319 -0.120484,0.2752507 -0.120484,0.825752 0,0.5505014 0.120484,0.8326333 0.127572,0.2821319 0.396889,0.2821319 0.545722,0 0.545722,-1.1147652 0,-1.1078839 -0.545722,-1.1078839 z m 3.09715,1.5414037 q 0.517372,0 0.78669,0.4059948 0.276405,0.3991134 0.276405,1.1285277 0,0.7294142 -0.262231,1.1422897 -0.255142,0.405995 -0.800864,0.405995 -0.503199,0 -0.772516,-0.405995 -0.26223,-0.4128755 -0.26223,-1.1422897 0,-0.7294143 0.248055,-1.1285277 0.248056,-0.4059948 0.786691,-0.4059948 z m 0,0.4335198 q -0.269318,0 -0.396889,0.2752507 -0.120484,0.2752506 -0.120484,0.825752 0,0.5573826 0.120484,0.8395145 0.127571,0.2752502 0.396889,0.2752502 0.545722,0 0.545722,-1.1147647 0,-1.1010027 -0.545722,-1.1010027 z"
             id="text13-7-7-6"
             style="white-space:pre;fill:#333333;stroke-width:1.53967"
             aria-label="20%&#10;" />
          <path
             style="fill:#00457c;fill-opacity:1;stroke:none;stroke-width:0.710402;stroke-dasharray:none;stroke-opacity:1"
             d="M 32.651281,38.371354 V 14.563474 Z"
             id="path13-9-9" />
          <path
             style="fill:#000000;fill-opacity:1;stroke:#747474;stroke-width:0.710402;stroke-dasharray:none;stroke-opacity:1"
             d="m 29.734685,12.712316 v 25.55027 z"
             id="path14-2-3" />
          <path
             d="m 147.08711,564.79531 q 1.32,0 2.1,0.66 0.78,0.66 0.78,1.86 0,1.332 -0.852,2.1 -0.84,0.756 -2.352,0.756 -0.66,0 -1.248,-0.12 -0.576,-0.12 -0.972,-0.348 v -0.996 q 0.432,0.264 1.044,0.42 0.624,0.144 1.188,0.144 0.948,0 1.524,-0.444 0.588,-0.456 0.588,-1.404 0,-0.84 -0.516,-1.284 -0.516,-0.456 -1.632,-0.456 -0.336,0 -0.768,0.06 -0.432,0.06 -0.696,0.12 l -0.528,-0.336 0.324,-4.044 h 4.296 v 0.96 h -3.396 l -0.204,2.484 q 0.204,-0.036 0.552,-0.084 0.348,-0.048 0.768,-0.048 z m 9.84001,0.96 q 0,1.38 -0.288,2.376 -0.288,0.984 -0.912,1.512 -0.624,0.528 -1.656,0.528 -1.452,0 -2.148,-1.164 -0.684,-1.176 -0.684,-3.252 0,-1.392 0.276,-2.376 0.288,-0.984 0.912,-1.5 0.624,-0.528 1.644,-0.528 1.44,0 2.148,1.164 0.708,1.152 0.708,3.24 z m -4.632,0 q 0,1.764 0.396,2.64 0.408,0.876 1.38,0.876 0.96,0 1.368,-0.864 0.42,-0.876 0.42,-2.652 0,-1.752 -0.42,-2.628 -0.408,-0.876 -1.368,-0.876 -0.972,0 -1.38,0.876 -0.396,0.876 -0.396,2.628 z m 7.56,-4.392 q 0.888,0 1.344,0.708 0.456,0.696 0.456,1.968 0,1.272 -0.444,1.992 -0.432,0.708 -1.356,0.708 -0.852,0 -1.308,-0.708 -0.444,-0.72 -0.444,-1.992 0,-1.272 0.42,-1.968 0.42,-0.708 1.332,-0.708 z m 5.484,0.12 -4.752,8.568 h -0.924 l 4.752,-8.568 z m -5.484,0.624 q -0.456,0 -0.672,0.492 -0.204,0.48 -0.204,1.44 0,0.96 0.204,1.452 0.216,0.492 0.672,0.492 0.924,0 0.924,-1.944 0,-1.932 -0.924,-1.932 z m 5.244,2.688 q 0.876,0 1.332,0.708 0.468,0.696 0.468,1.968 0,1.272 -0.444,1.992 -0.432,0.708 -1.356,0.708 -0.852,0 -1.308,-0.708 -0.444,-0.72 -0.444,-1.992 0,-1.272 0.42,-1.968 0.42,-0.708 1.332,-0.708 z m 0,0.756 q -0.456,0 -0.672,0.48 -0.204,0.48 -0.204,1.44 0,0.972 0.204,1.464 0.216,0.48 0.672,0.48 0.924,0 0.924,-1.944 0,-1.92 -0.924,-1.92 z"
             id="text13-7-7-2-74"
             style="white-space:pre;fill:#333333;stroke-width:2.64567"
             aria-label="50%&#10;"
             transform="matrix(0.59060827,0,0,0.57343888,-16.031944,-316.32704)" />
          <path
             style="fill:#000000;fill-opacity:1;stroke:#747474;stroke-width:0.710402;stroke-dasharray:none;stroke-opacity:1"
             d="m 75.885049,12.728734 v 25.55027 z"
             id="path14-2-9-5" />
          <path
             d="M 98.690579,10.551151 100.76716,6.1884243 H 98.038547 V 5.637923 h 3.394813 V 6.1058491 L 99.378047,10.551151 Z M 105.4873,8.0876539 q 0,0.7913456 -0.17009,1.3624907 -0.1701,0.5642644 -0.53864,0.8670434 -0.36853,0.302776 -0.97804,0.302776 -0.85757,0 -1.26863,-0.6674869 -0.40397,-0.6743641 -0.40397,-1.8648232 0,-0.798227 0.163,-1.3624908 0.1701,-0.5642639 0.53864,-0.8601583 0.36854,-0.3027758 0.97096,-0.3027758 0.85047,0 1.26862,0.6674829 0.41815,0.6606016 0.41815,1.857942 z m -2.73569,0 q 0,1.0115461 0.23388,1.5138786 0.24097,0.5023345 0.81504,0.5023345 0.56698,0 0.80795,-0.4954532 0.24806,-0.5023325 0.24806,-1.5207599 0,-1.004665 -0.24806,-1.5069974 -0.24097,-0.5023325 -0.80795,-0.5023325 -0.57407,0 -0.81504,0.5023325 -0.23388,0.5023324 -0.23388,1.5069974 z m 4.465,-2.5185436 q 0.52446,0 0.79377,0.4059947 0.26932,0.3991135 0.26932,1.1285277 0,0.7294143 -0.26223,1.1422903 -0.25514,0.4059947 -0.80086,0.4059947 -0.5032,0 -0.77252,-0.4059947 -0.26223,-0.412876 -0.26223,-1.1422903 0,-0.7294142 0.24806,-1.1285277 0.24805,-0.4059947 0.78669,-0.4059947 z m 3.23889,0.068813 -2.80657,4.9132277 h -0.54572 l 2.80657,-4.9132277 z m -3.23889,0.3578258 q -0.26932,0 -0.39689,0.2821319 -0.12049,0.2752507 -0.12049,0.825752 0,0.5505014 0.12049,0.8326333 0.12757,0.2821319 0.39689,0.2821319 0.54572,0 0.54572,-1.1147652 0,-1.1078839 -0.54572,-1.1078839 z m 3.09715,1.5414037 q 0.51737,0 0.78669,0.4059948 0.2764,0.3991134 0.2764,1.1285277 0,0.7294142 -0.26223,1.1422937 -0.25514,0.405995 -0.80086,0.405995 -0.5032,0 -0.77252,-0.405995 -0.26223,-0.4128795 -0.26223,-1.1422937 0,-0.7294143 0.24806,-1.1285277 0.24805,-0.4059948 0.78669,-0.4059948 z m 0,0.4335198 q -0.26932,0 -0.39689,0.2752507 -0.12049,0.2752506 -0.12049,0.825752 0,0.5573826 0.12049,0.8395145 0.12757,0.2752542 0.39689,0.2752542 0.54572,0 0.54572,-1.1147687 0,-1.1010027 -0.54572,-1.1010027 z"
             id="text13-7-7-2-7-2"
             style="white-space:pre;fill:#333333;stroke-width:1.53967"
             aria-label="70%&#10;" />
          <path
             style="fill:#000000;fill-opacity:1;stroke:#747474;stroke-width:0.710402;stroke-dasharray:none;stroke-opacity:1"
             d="M 104.72183,12.71734 V 38.26761 Z"
             id="path14-2-9-8-5" />
          <path
             d="m 129.17337,7.7699899 q 0,0.5298575 -0.0992,1.0459525 -0.0921,0.5092138 -0.34727,0.9289716 -0.24806,0.412882 -0.70873,0.660607 -0.45359,0.247726 -1.16941,0.247726 -0.14174,0 -0.3331,-0.02064 -0.18427,-0.01376 -0.30475,-0.04817 v -0.516095 q 0.2764,0.08946 0.62368,0.08946 0.49611,0 0.81504,-0.1582694 0.32601,-0.1582722 0.51737,-0.4266448 0.19136,-0.2752507 0.27641,-0.6330766 0.085,-0.3647071 0.0992,-0.7638206 h -0.0425 q -0.15592,0.2339631 -0.45358,0.4059948 -0.29058,0.1651504 -0.75126,0.1651504 -0.65203,0 -1.056,-0.385351 -0.39689,-0.3922322 -0.39689,-1.1010026 0,-0.516095 0.19844,-0.8876834 0.20553,-0.3715884 0.56698,-0.5711451 0.36146,-0.1995567 0.85048,-0.1995567 0.48194,0 0.87174,0.2408443 0.3898,0.233963 0.61659,0.7156517 0.2268,0.4748074 0.2268,1.2111029 z m -1.71513,-1.6583852 q -0.43941,0 -0.7229,0.2821319 -0.27641,0.2821319 -0.27641,0.8601583 0,0.4748074 0.23388,0.7500581 0.24097,0.2683694 0.73708,0.2683694 0.34019,0 0.58825,-0.1307441 0.24805,-0.1376253 0.38271,-0.3440633 0.14175,-0.206438 0.14175,-0.4266385 0,-0.2958945 -0.12049,-0.5849077 -0.12048,-0.2890132 -0.36145,-0.4816887 -0.24097,-0.1926754 -0.60242,-0.1926754 z m 4.03268,1.4588285 q 0.7796,0 1.24028,0.3784696 0.46067,0.3784697 0.46067,1.0665964 0,0.7638216 -0.5032,1.2042278 -0.49611,0.43352 -1.38911,0.43352 -0.3898,0 -0.73708,-0.06881 -0.34019,-0.06881 -0.57407,-0.199556 V 9.8137306 q 0.25514,0.1513916 0.6166,0.2408494 0.36854,0.08258 0.70164,0.08258 0.5599,0 0.90009,-0.2546098 0.34727,-0.2614916 0.34727,-0.8051116 0,-0.4816887 -0.30475,-0.7362956 -0.30475,-0.2614881 -0.96387,-0.2614881 -0.19845,0 -0.45359,0.034406 -0.25514,0.034406 -0.41106,0.068813 l -0.31184,-0.1926835 0.19135,-2.3189868 h 2.53726 v 0.5505013 h -2.00571 l -0.12048,1.4244222 q 0.12048,-0.020644 0.32601,-0.048169 0.20553,-0.027525 0.45359,-0.027525 z m 3.48695,-1.9680422 q 0.52446,0 0.79378,0.4059947 0.26932,0.3991134 0.26932,1.1285277 0,0.7294143 -0.26223,1.1422902 -0.25515,0.4059948 -0.80087,0.4059948 -0.5032,0 -0.77251,-0.4059948 -0.26223,-0.4128759 -0.26223,-1.1422902 0,-0.7294143 0.24805,-1.1285277 0.24806,-0.4059947 0.78669,-0.4059947 z m 3.2389,0.068813 -2.80657,4.91323 h -0.54573 l 2.80657,-4.91323 z m -3.2389,0.3578259 q -0.26932,0 -0.39689,0.2821319 -0.12048,0.2752507 -0.12048,0.825752 0,0.5505013 0.12048,0.8326332 0.12757,0.282132 0.39689,0.282132 0.54572,0 0.54572,-1.1147652 0,-1.1078839 -0.54572,-1.1078839 z m 3.09715,1.5414037 q 0.51737,0 0.78669,0.4059947 0.27641,0.3991135 0.27641,1.1285277 0,0.729416 -0.26223,1.142296 -0.25515,0.405995 -0.80087,0.405995 -0.5032,0 -0.77251,-0.405995 -0.26224,-0.41288 -0.26224,-1.142296 0,-0.7294142 0.24806,-1.1285277 0.24806,-0.4059947 0.78669,-0.4059947 z m 0,0.4335198 q -0.26932,0 -0.39689,0.2752506 -0.12048,0.2752507 -0.12048,0.825752 0,0.5573826 0.12048,0.8395194 0.12757,0.2752516 0.39689,0.2752516 0.54572,0 0.54572,-1.114771 0,-1.1010026 -0.54572,-1.1010026 z"
             id="text13-7-7-2-7-6-4"
             style="white-space:pre;fill:#333333;stroke-width:1.53967"
             aria-label="95%&#10;" />
          <path
             style="fill:#000000;fill-opacity:1;stroke:#747474;stroke-width:0.710402;stroke-dasharray:none;stroke-opacity:1"
             d="m 132.49025,12.750624 v 25.55027 z"
             id="path14-2-9-8-0-7" />
        </g>
      </g>
    </g>
  </g>
</svg>
