<svg width="218" height="53" viewBox="0 0 218 53" fill="none" xmlns="http://www.w3.org/2000/svg">
<g clip-path="url(#clip0_931_2160)">
<path d="M58.7148 27.8086H61.7777L52.6027 52.5781H50.032L40.7339 27.8086H43.7558L49.9363 45.3576L51.3037 50.2572H51.4131L52.6437 45.4119L58.7148 27.8086Z" fill="#1D1D1B"/>
<path d="M64.786 29.9673C66.3211 29.1729 67.9338 28.5362 69.5992 28.0671C71.1355 27.6736 72.7163 27.4775 74.3029 27.4835C75.4415 27.4785 76.5747 27.6385 77.6667 27.9586C78.7322 28.26 79.711 28.8067 80.5236 29.5543C81.3362 30.3019 81.9596 31.2293 82.3431 32.261C82.8429 33.602 83.0796 35.0256 83.0404 36.4549V52.5788H81.0441L80.4288 49.3079H80.3194C79.2831 50.4888 77.9872 51.4175 76.5318 52.0223C74.9975 52.6508 73.351 52.9648 71.6913 52.9452C70.5672 52.9638 69.4469 52.8128 68.3686 52.4974C67.3697 52.1963 66.4404 51.7028 65.6338 51.0451C64.8752 50.4228 64.2676 49.6388 63.8562 48.7514C63.4021 47.7377 63.1835 46.6356 63.2167 45.5267C63.2498 44.4178 63.5338 43.3305 64.0477 42.3453C64.6191 41.3571 65.4209 40.5193 66.3859 39.9022C67.4868 39.2073 68.7051 38.7154 69.9821 38.45C71.5091 38.1207 73.0685 37.9614 74.6311 37.975H80.1963V36.3463C80.2855 35.4192 80.1782 34.4838 79.8815 33.6002C79.5848 32.7167 79.1052 31.9045 78.4734 31.2159C77.2835 30.1662 75.7294 29.6164 74.1389 29.6823C72.8809 29.7064 71.6293 29.8657 70.4059 30.1573C68.8305 30.5404 67.3131 31.1291 65.8936 31.9081L64.786 29.9673ZM80.1553 40.133H75.5336C74.0852 40.1709 72.6454 40.3666 71.24 40.7166C70.2134 40.9511 69.2304 41.345 68.3275 41.8838C67.6297 42.282 67.057 42.8646 66.673 43.5668C66.3468 44.2109 66.1782 44.9224 66.1808 45.6433C66.1587 46.4533 66.3273 47.2573 66.673 47.9913C67 48.6216 67.4677 49.1693 68.0404 49.5929C68.6318 50.03 69.3063 50.344 70.0231 50.5158C70.8128 50.7218 71.6268 50.8222 72.4433 50.8144C73.1342 50.8119 73.8225 50.7299 74.4944 50.5701C75.217 50.4058 75.9155 50.1504 76.5728 49.81C77.2728 49.4605 77.9329 49.0373 78.5418 48.5478C79.1891 48.0214 79.7396 47.3877 80.169 46.6748L80.1553 40.133Z" fill="#1D1D1B"/>
<path d="M101.022 50.9919C102.108 51.0033 103.192 50.8802 104.249 50.6255C105.188 50.3929 106.103 50.0749 106.983 49.6754L107.585 51.5755C106.586 52.0658 105.53 52.4306 104.44 52.6613C103.205 52.8962 101.95 53.0099 100.693 53.0006C99.002 53.0119 97.3203 52.7459 95.7162 52.2134C94.202 51.7031 92.8069 50.8953 91.6141 49.8383C90.4277 48.7211 89.4953 47.3653 88.8793 45.8616C88.1496 44.0788 87.7959 42.1664 87.8401 40.2426C87.8099 38.4244 88.135 36.6177 88.7973 34.9223C89.3957 33.3817 90.3295 31.9913 91.532 30.8506C92.7046 29.7279 94.1023 28.8631 95.6341 28.3125C97.2637 27.7232 98.9865 27.429 100.721 27.4439C101.842 27.4412 102.962 27.5229 104.071 27.6882C105.28 27.8905 106.457 28.2511 107.571 28.7604L106.901 30.932C105.959 30.4721 104.955 30.1477 103.92 29.9684C102.992 29.7881 102.049 29.6972 101.104 29.6969C99.7016 29.6927 98.3109 29.9458 97.0015 30.4434C95.7702 30.9116 94.6554 31.6385 93.7335 32.5742C92.8136 33.4919 92.0924 34.5865 91.6141 35.7909C91.0956 37.1613 90.8405 38.616 90.862 40.0797C90.8059 41.8717 91.1079 43.6569 91.7508 45.3322C92.2676 46.5986 93.0562 47.7379 94.0617 48.671C94.9807 49.5114 96.0862 50.1252 97.2887 50.4626C98.5006 50.8174 99.758 50.9957 101.022 50.9919Z" fill="#1D1D1B"/>
<path d="M114.217 21.4302C113.654 21.4408 113.108 21.2423 112.685 20.8737C112.469 20.6798 112.298 20.4401 112.187 20.1724C112.076 19.9047 112.027 19.6157 112.043 19.3265C112.019 19.0187 112.061 18.7094 112.167 18.4191C112.273 18.1289 112.441 17.8645 112.658 17.6435C113.062 17.2596 113.603 17.0498 114.162 17.0599C114.706 17.0615 115.231 17.2593 115.639 17.6164C115.859 17.8396 116.027 18.1091 116.129 18.4051C116.23 18.7011 116.264 19.016 116.227 19.3265C116.246 19.6164 116.203 19.9071 116.099 20.1788C115.995 20.4505 115.833 20.6968 115.625 20.9009C115.235 21.2393 114.735 21.4272 114.217 21.4302ZM112.713 52.6466V27.8092H115.598V52.5787L112.713 52.6466Z" fill="#1D1D1B"/>
<path d="M126.072 52.5789H123.173V27.8094H125.292L125.798 31.216C127.026 30.1186 128.408 29.2042 129.9 28.5016C131.462 27.7969 133.162 27.4446 134.878 27.4701C137.164 27.3367 139.411 28.0967 141.14 29.5874C141.915 30.3571 142.517 31.2814 142.906 32.2991C143.295 33.3168 143.462 34.4048 143.396 35.4913V52.5789H140.429V36.1835C140.431 35.3242 140.33 34.4676 140.128 33.6319C139.938 32.8716 139.573 32.1654 139.062 31.5689C138.514 30.9657 137.83 30.5005 137.065 30.2117C136.085 29.8543 135.047 29.6794 134.002 29.6959C132.538 29.7153 131.097 30.0682 129.791 30.7274C128.406 31.4046 127.155 32.3241 126.099 33.4419L126.072 52.5789Z" fill="#1D1D1B"/>
<path d="M149.946 29.9673C151.481 29.1729 153.093 28.5362 154.759 28.0671C156.295 27.6736 157.876 27.4775 159.463 27.4835C160.601 27.4785 161.734 27.6385 162.826 27.9586C163.892 28.26 164.871 28.8067 165.683 29.5543C166.496 30.3019 167.119 31.2293 167.503 32.261C168.003 33.602 168.239 35.0256 168.2 36.4549V52.5788H166.204L165.588 49.3079H165.452C164.415 50.4888 163.119 51.4175 161.664 52.0223C160.13 52.6508 158.483 52.9648 156.824 52.9452C155.669 52.9521 154.521 52.7828 153.419 52.4431C152.421 52.1407 151.491 51.6474 150.684 50.9908C149.925 50.3685 149.318 49.5845 148.907 48.6971C148.452 47.6834 148.234 46.5813 148.267 45.4724C148.3 44.3635 148.584 43.2762 149.098 42.291C149.669 41.3028 150.471 40.465 151.436 39.8479C152.537 39.1531 153.755 38.6611 155.032 38.3957C156.555 38.0671 158.11 37.9077 159.668 37.9207H165.247V36.292C165.343 35.3813 165.249 34.4607 164.971 33.5875C164.694 32.7142 164.238 31.907 163.633 31.2159C162.443 30.1662 160.889 29.6164 159.299 29.6823C158.041 29.7064 156.789 29.8657 155.566 30.1573C153.99 30.5404 152.473 31.1291 151.053 31.9081L149.946 29.9673ZM165.315 40.133H160.693C159.248 40.1442 157.808 40.3126 156.4 40.6351C155.37 40.8723 154.383 41.2661 153.474 41.8024C152.783 42.2047 152.215 42.7866 151.833 43.4853C151.506 44.1295 151.338 44.8409 151.34 45.5619C151.318 46.3719 151.487 47.1759 151.833 47.9099C152.16 48.5401 152.627 49.0879 153.2 49.5114C153.792 49.9486 154.466 50.2625 155.183 50.4344C155.973 50.6404 156.786 50.7408 157.603 50.733C158.294 50.7304 158.982 50.6485 159.654 50.4887C160.38 50.3342 161.083 50.0878 161.746 49.7557C162.446 49.4062 163.106 48.983 163.715 48.4935C164.362 47.9671 164.913 47.3334 165.342 46.6205L165.315 40.133Z" fill="#1D1D1B"/>
<path d="M184.458 27.4704C186.734 27.3504 188.99 27.9388 190.912 29.1533C191.676 29.6909 192.293 30.4095 192.706 31.2439C193.119 32.0783 193.316 33.0019 193.278 33.9308C193.296 34.5979 193.175 35.2615 192.923 35.8803C192.672 36.4991 192.294 37.0598 191.815 37.5275C191.353 37.969 190.828 38.3396 190.256 38.6268C189.68 38.9119 189.075 39.1349 188.451 39.2919C189.197 39.4272 189.923 39.6552 190.611 39.9705C191.284 40.2816 191.895 40.709 192.416 41.2327C192.94 41.7528 193.353 42.371 193.633 43.0514C193.946 43.8183 194.1 44.64 194.085 45.4673C194.091 46.4631 193.842 47.4441 193.36 48.3175C192.865 49.1985 192.178 49.9589 191.35 50.5433C190.397 51.2007 189.338 51.6918 188.218 51.9956C186.909 52.3492 185.556 52.5228 184.198 52.5113H175.502V27.4704H184.458ZM180.63 37.6496H183.487C184.618 37.6877 185.738 37.4203 186.728 36.876C187.165 36.6117 187.518 36.2312 187.747 35.7778C187.977 35.3244 188.074 34.8162 188.027 34.3108C188.054 33.8551 187.961 33.4003 187.757 32.991C187.553 32.5817 187.246 32.2321 186.865 31.9764C185.895 31.4068 184.776 31.1375 183.651 31.2027H180.63V37.6496ZM180.63 48.7925H183.528C184.221 48.7936 184.912 48.73 185.593 48.6025C186.185 48.4835 186.754 48.268 187.275 47.9646C187.744 47.6761 188.126 47.2684 188.383 46.7838C188.665 46.2392 188.802 45.6316 188.779 45.0194C188.798 44.4223 188.642 43.8327 188.328 43.3229C188.011 42.8575 187.59 42.4718 187.097 42.1963C186.553 41.8789 185.956 41.6627 185.333 41.5584C184.645 41.4208 183.944 41.3526 183.241 41.3549H180.63V48.7925Z" fill="#1D1D1B"/>
<path d="M198.16 27.4696H207.731C209.029 27.4404 210.321 27.6427 211.546 28.0667C212.559 28.4223 213.489 28.9761 214.281 29.6954C215.014 30.3731 215.588 31.2025 215.963 32.1249C216.342 33.0892 216.532 34.1164 216.523 35.1515C216.546 36.0788 216.383 37.0012 216.045 37.866C215.459 39.3024 214.436 40.5217 213.119 41.3541C212.546 41.7146 211.942 42.0235 211.314 42.277L218 52.592H212.148L206.678 43.1592H203.192V52.6598H198.187L198.16 27.4696ZM203.164 39.3589H205.721C207.1 39.4125 208.467 39.0885 209.673 38.4224C210.197 38.095 210.62 37.6302 210.895 37.0794C211.17 36.5286 211.287 35.9131 211.232 35.3008C211.269 34.7357 211.177 34.1695 210.961 33.6451C210.746 33.1207 210.413 32.6519 209.987 32.2742C208.933 31.5204 207.647 31.1556 206.35 31.2427H203.164V39.3589Z" fill="#1D1D1B"/>
<path d="M43.7559 19.5153C43.7559 21.2119 43.7559 22.922 43.7559 24.6321V25.0936C43.7559 25.1886 43.7559 25.2157 43.6328 25.2157H42.8807H33.0767C30.8011 25.2565 28.5707 24.5819 26.7047 23.2884C25.4869 22.4737 24.454 21.4154 23.6723 20.1813C22.8905 18.9473 22.3771 17.5647 22.1651 16.1222C21.7516 13.5724 22.2829 10.9603 23.6606 8.76939C25.0382 6.57848 27.1689 4.95722 29.6583 4.20573C31.3854 3.62773 33.2345 3.50649 35.0233 3.85397C36.812 4.20145 38.4786 5.00565 39.8589 6.18729C42.0324 7.89521 43.4341 10.3897 43.7559 13.1228C43.8175 13.9586 43.8175 14.7978 43.7559 15.6336C43.7559 16.9909 43.7559 18.2124 43.7559 19.5018V19.5153Z" fill="#00B272"/>
<path d="M39.6538 12.4043C39.6477 12.4675 39.6477 12.5311 39.6538 12.5943C39.587 12.9037 39.4301 13.1869 39.2025 13.4086C37.1515 15.458 35.1004 17.4803 33.063 19.5433C32.905 19.705 32.7158 19.8336 32.5068 19.9214C32.2977 20.0092 32.0731 20.0544 31.8461 20.0544C31.6191 20.0544 31.3944 20.0092 31.1854 19.9214C30.9763 19.8336 30.7872 19.705 30.6291 19.5433L27.238 16.2045L27.0876 16.0281C26.9019 15.7975 26.7805 15.5226 26.7357 15.2307C26.6909 14.9389 26.7241 14.6405 26.8322 14.3655C26.9402 14.0905 27.1193 13.8486 27.3513 13.6639C27.5833 13.4793 27.8602 13.3585 28.1542 13.3136C28.4314 13.2633 28.7169 13.2828 28.9845 13.3706C29.2521 13.4583 29.4932 13.6114 29.6856 13.8158L31.6136 15.7159L31.7093 15.8109C31.7469 15.8443 31.7956 15.8628 31.8461 15.8628C31.8965 15.8628 31.9452 15.8443 31.9828 15.8109L32.0922 15.7023L36.7276 11.0742C37.0552 10.7392 37.5017 10.5444 37.9719 10.5313C38.3688 10.5291 38.7542 10.6629 39.0632 10.9102C39.3721 11.1575 39.5855 11.5031 39.6674 11.8885C39.6674 11.8885 39.6674 11.9564 39.6674 11.9971L39.6538 12.4043Z" fill="white"/>
<path d="M32.6939 37.4311C32.393 36.5263 32.0649 35.6215 31.7093 34.7167C31.4877 34.2902 31.3883 33.8115 31.4221 33.3328C31.4559 32.8541 31.6214 32.3939 31.9008 32.0022C32.3163 31.3718 32.5869 30.6582 32.6932 29.9123C32.7995 29.1664 32.7391 28.4063 32.5161 27.6862C32.2289 27.6862 31.9418 27.6862 31.641 27.6862C31.3402 27.6862 30.9026 27.6862 30.5334 27.6862C30.733 28.2295 30.8157 28.8082 30.7762 29.3852C30.7368 29.9621 30.5759 30.5244 30.3041 31.0359C30.0323 31.5474 29.6555 31.9967 29.1981 32.3548C28.7406 32.7129 28.2127 32.9719 27.6482 33.1151C25.146 33.9159 22.6847 34.8795 20.1961 35.721C19.3308 36.0941 18.3598 36.1487 17.4576 35.875C16.5554 35.6014 15.781 35.0175 15.2735 34.2281C14.9075 33.5497 14.601 32.8413 14.3574 32.1108C14.3442 32.0788 14.3377 32.0444 14.3382 32.0099C14.3386 31.9753 14.3461 31.9411 14.3601 31.9095C14.3742 31.8778 14.3945 31.8493 14.4198 31.8256C14.4452 31.8019 14.4751 31.7835 14.5078 31.7715L17.7758 30.6314C18.3443 30.4429 18.8974 30.2115 19.4303 29.9392C19.5487 29.9048 19.6576 29.8439 19.7486 29.7612C19.8395 29.6785 19.9102 29.5762 19.9551 29.4622C20 29.3481 20.0179 29.2254 20.0075 29.1034C19.9972 28.9814 19.9588 28.8634 19.8953 28.7584C19.8546 28.6445 19.7909 28.5401 19.708 28.4517C19.625 28.3633 19.5247 28.2927 19.4132 28.2444C19.3016 28.196 19.1813 28.1709 19.0596 28.1706C18.9379 28.1703 18.8174 28.1949 18.7056 28.2427L17.1742 28.772L13.8378 29.8578C13.8091 29.8686 13.7785 29.8737 13.7478 29.8728C13.7171 29.8718 13.6868 29.8648 13.6589 29.8522C13.6309 29.8396 13.6057 29.8216 13.5848 29.7992C13.5639 29.7769 13.5476 29.7507 13.537 29.722L12.867 27.8219L14.5899 27.1433C15.6017 26.7633 16.6136 26.3968 17.6391 26.0439C18.2407 25.8132 18.7877 25.4875 18.5416 24.7546C18.2954 24.0217 17.6664 24.0217 17.0374 24.2117C16.4085 24.4017 16.135 24.5374 15.6701 24.7003L12.3884 25.8268C12.3382 25.8533 12.2809 25.8636 12.2246 25.8563C12.1682 25.849 12.1155 25.8245 12.0739 25.7861C10.351 20.8729 8.64179 16.0954 6.83686 11.1958C7.52054 10.9108 7.80769 10.7886 8.20423 10.6529L20.2371 6.40476L21.249 6.03831C21.3895 6.00358 21.5207 5.93848 21.633 5.84766C21.7453 5.75684 21.836 5.64254 21.8987 5.51291C21.9614 5.38328 21.9945 5.24151 21.9956 5.09772C21.9968 4.95394 21.9659 4.81167 21.9053 4.68108C21.6455 4.01603 21.0712 4.08389 20.5379 4.19247C20.1883 4.28101 19.8456 4.39441 19.5124 4.53178L1.36737 10.8565C0.972295 10.9779 0.591739 11.1418 0.232453 11.3451C0 11.5487 0 12.2137 0 12.458C0.0599 12.6427 0.17943 12.8025 0.340096 12.9129C0.500762 13.0234 0.693607 13.0781 0.888791 13.0688C1.39916 12.9741 1.90186 12.8426 2.3929 12.6752L4.7858 11.888C4.81452 11.8771 4.84512 11.872 4.87583 11.873C4.90654 11.8739 4.93676 11.8809 4.96474 11.8936C4.99271 11.9062 5.01789 11.9242 5.03881 11.9465C5.05973 11.9689 5.07598 11.9951 5.08662 12.0237C5.40112 12.8516 5.74296 13.7745 6.01643 14.5346C8.25892 20.805 10.5014 27.08 12.7439 33.3594C13.0299 34.2387 13.4907 35.0521 14.099 35.7515C14.7073 36.4509 15.4508 37.022 16.2854 37.4311C16.8553 37.7422 17.3485 38.1751 17.7293 38.6986C18.11 39.222 18.3688 39.8229 18.4869 40.4578C18.6373 40.9057 18.7877 41.3671 18.9518 41.815C19.1424 42.4407 19.4628 43.0198 19.8925 43.5151C20.3222 44.0105 20.8516 44.411 21.4467 44.691C22.0417 44.971 22.6892 45.1242 23.3476 45.1408C24.0059 45.1574 24.6604 45.037 25.269 44.7873C25.7066 44.6516 26.1441 44.543 26.6364 44.4073C27.3884 46.6739 28.0995 48.8048 28.8379 50.9492C28.9883 51.4552 29.1757 51.9496 29.3985 52.4286H31.6136C30.6565 49.5648 29.6856 46.5925 28.7148 43.6744L30.0822 43.0501C31.1455 42.606 32.003 41.7832 32.4862 40.7435C32.9695 39.7038 33.0435 38.5223 32.6939 37.4311ZM24.8588 42.9822C24.0546 43.2363 23.1831 43.1772 22.4212 42.8167C21.6594 42.4562 21.0643 41.8215 20.7567 41.0414C20.4285 40.1863 20.1277 39.2906 19.7448 38.2183C19.7258 38.1552 19.7305 38.0873 19.7582 38.0273C19.7859 37.9674 19.8346 37.9195 19.8953 37.8926L29.3711 34.5538C29.4364 34.5323 29.5076 34.5374 29.5691 34.5679C29.6307 34.5984 29.6775 34.6519 29.6993 34.7167C30.1679 35.8955 30.5651 37.1011 30.8889 38.3269C30.9846 38.6441 31.0154 38.9771 30.9796 39.3064C30.9437 39.6356 30.8419 39.9544 30.6801 40.2439C30.5183 40.5335 30.2998 40.7881 30.0374 40.9926C29.7751 41.1972 29.4741 41.3476 29.1524 41.435C27.7303 41.9914 26.2946 42.5208 24.8588 42.9822Z" fill="#1D1D1B"/>
<path d="M4.53964 7.30117C4.11576 7.3826 3.65085 6.81256 3.56881 6.48682C3.53489 6.3109 3.54322 6.12951 3.59311 5.95738C3.64299 5.78524 3.73304 5.62719 3.85595 5.49604C4.18992 5.2493 4.57165 5.07371 4.9772 4.98029C9.48952 3.39685 13.9973 1.82246 18.5005 0.257119C19.8679 -0.204341 20.3738 -0.0550451 20.5926 0.732151C20.8114 1.51935 20.4695 1.77722 19.2252 2.22511C14.6126 3.84474 10.0274 5.44175 5.46945 7.01615C5.16479 7.12734 4.85442 7.22248 4.53964 7.30117Z" fill="#1D1D1B"/>
</g>
<defs>
<clipPath id="clip0_931_2160">
<rect width="218" height="53" fill="white"/>
</clipPath>
</defs>
</svg>